<svg width="25" height="21" viewBox="0 0 25 21" fill="none" xmlns="http://www.w3.org/2000/svg">
<path d="M20.8333 0H4.16667C1.86548 0 0 1.67893 0 3.75V6.25C0 8.32107 1.86548 10 4.16667 10H20.8333C23.1345 10 25 8.32107 25 6.25V3.75C25 1.67893 23.1345 0 20.8333 0Z" fill="black"/>
<path d="M5.5 5V5.01375" stroke="white" stroke-width="2.2" stroke-linecap="round" stroke-linejoin="round"/>
<path d="M10 5H19.5" stroke="white" stroke-width="2.2" stroke-linecap="round"/>
<path d="M4.16667 11H20.8333C23.1345 11 25 12.6789 25 14.75V17.25C25 19.3211 23.1345 21 20.8333 21H4.16667C1.86548 21 0 19.3211 0 17.25V14.75C0 12.6789 1.86548 11 4.16667 11Z" fill="black"/>
<path d="M19.5 16V16.0138" stroke="white" stroke-width="2.2" stroke-linecap="round" stroke-linejoin="round"/>
<path d="M15 16H5.5" stroke="white" stroke-width="2.2" stroke-linecap="round"/>
</svg>
