<svg width="26" height="24" viewBox="0 0 26 24" fill="none" xmlns="http://www.w3.org/2000/svg">
<path d="M20.625 5.5V1.375C20.625 1.01033 20.4802 0.660591 20.2223 0.402729C19.9644 0.144866 19.6147 0 19.25 0H1.375C1.01033 0 0.660591 0.144866 0.402728 0.402729C0.144866 0.660591 0 1.01033 0 1.375V17.875C0 18.2397 0.144866 18.5894 0.402728 18.8473C0.660591 19.1052 1.01033 19.25 1.375 19.25H13.75" fill="black"/>
<path d="M23.375 5.5H15.125C14.3656 5.5 13.75 6.11561 13.75 6.875V20.625C13.75 21.3844 14.3656 22 15.125 22H23.375C24.1344 22 24.75 21.3844 24.75 20.625V6.875C24.75 6.11561 24.1344 5.5 23.375 5.5Z" fill="white" stroke="black" stroke-width="2.2" stroke-linecap="round" stroke-linejoin="round"/>
<path d="M17.875 9.875H20.625" stroke="black" stroke-width="2.2" stroke-linecap="round" stroke-linejoin="round"/>
</svg>
