<svg width="22" height="22" viewBox="0 0 22 22" fill="none" xmlns="http://www.w3.org/2000/svg">
<path d="M10.9843 0C13.8392 2.52581 17.5653 3.84091 21.3732 3.66667C21.9276 5.55257 22.0972 7.53068 21.872 9.48344C21.6468 11.4362 21.0313 13.3238 20.0622 15.034C19.0931 16.7442 17.7901 18.2421 16.2306 19.4388C14.6711 20.6355 12.887 21.5065 10.9843 22C9.08154 21.5065 7.29742 20.6355 5.73795 19.4388C4.17847 18.2421 2.87546 16.7442 1.90634 15.034C0.937225 13.3238 0.321778 11.4362 0.0965731 9.48344C-0.128632 7.53068 0.0410014 5.55257 0.595392 3.66667C4.40326 3.84091 8.12938 2.52581 10.9843 0Z" fill="black"/>
<path d="M10.9839 11C11.659 11 12.2062 10.4528 12.2062 9.77779C12.2062 9.10278 11.659 8.55557 10.9839 8.55557C10.3089 8.55557 9.76172 9.10278 9.76172 9.77779C9.76172 10.4528 10.3089 11 10.9839 11Z" stroke="white" stroke-width="2.2" stroke-linecap="round" stroke-linejoin="round"/>
<path d="M10.9844 11V14.0556" stroke="white" stroke-width="2.2" stroke-linecap="round" stroke-linejoin="round"/>
</svg>
