<svg width="20" height="25" viewBox="0 0 20 25" fill="none" xmlns="http://www.w3.org/2000/svg">
<path d="M17.1429 12H2.85714C1.27919 12 0 13.1641 0 14.6V22.4C0 23.8359 1.27919 25 2.85714 25H17.1429C18.7208 25 20 23.8359 20 22.4V14.6C20 13.1641 18.7208 12 17.1429 12Z" fill="black"/>
<path d="M10.1579 19.3158C10.7974 19.3158 11.3158 18.7974 11.3158 18.1579C11.3158 17.5184 10.7974 17 10.1579 17C9.51841 17 9 17.5184 9 18.1579C9 18.7974 9.51841 19.3158 10.1579 19.3158Z" stroke="white" stroke-width="2.2" stroke-linecap="round" stroke-linejoin="round"/>
<path d="M5 12V6.44444C5 5.2657 5.52678 4.13524 6.46447 3.30175C7.40215 2.46825 8.67392 2 10 2C11.3261 2 12.5979 2.46825 13.5355 3.30175C14.4732 4.13524 15 5.2657 15 6.44444" stroke="black" stroke-width="2.2" stroke-linecap="round" stroke-linejoin="round"/>
</svg>
