<svg width="22" height="23" viewBox="0 0 22 23" fill="none" xmlns="http://www.w3.org/2000/svg">
<path d="M11 0C13.859 2.52943 17.5904 3.84641 21.4038 3.67191C21.9589 5.56052 22.1288 7.54146 21.9033 9.49701C21.6778 11.4526 21.0614 13.3428 20.0909 15.0555C19.1204 16.7681 17.8156 18.2682 16.2538 19.4666C14.6921 20.665 12.9055 21.5372 11 22.0315C9.09454 21.5372 7.30787 20.665 5.74616 19.4666C4.18445 18.2682 2.87957 16.7681 1.90907 15.0555C0.938566 13.3428 0.322238 11.4526 0.0967113 9.49701C-0.128816 7.54146 0.04106 5.56052 0.596244 3.67191C4.40956 3.84641 8.14101 2.52943 11 0Z" fill="black"/>
<path d="M7.32812 11.0158L9.77607 13.4637L14.672 8.56781" stroke="white" stroke-width="2.2" stroke-linecap="round" stroke-linejoin="round"/>
</svg>
