<svg width="14" height="14" viewBox="0 0 14 14" fill="none" xmlns="http://www.w3.org/2000/svg">
<path d="M11.5 4H5.5C4.67157 4 4 4.67157 4 5.5V11.5C4 12.3285 4.67157 13 5.5 13H11.5C12.3285 13 13 12.3285 13 11.5V5.5C13 4.67157 12.3285 4 11.5 4Z" stroke="#919191" stroke-width="1.2" stroke-linecap="round" stroke-linejoin="round"/>
<path d="M10 4.00001V2.5C10 2.10218 9.84199 1.72065 9.56068 1.43934C9.27938 1.15804 8.89785 1 8.50002 1H2.5C2.10218 1 1.72065 1.15804 1.43934 1.43934C1.15804 1.72065 1 2.10218 1 2.5V8.50002C1 8.89785 1.15804 9.27938 1.43934 9.56068C1.72065 9.84199 2.10218 10 2.5 10H4.00001" stroke="#919191" stroke-width="1.2" stroke-linecap="round" stroke-linejoin="round"/>
</svg>
