<svg width="13" height="12" viewBox="0 0 13 12" fill="none" xmlns="http://www.w3.org/2000/svg">
<path d="M1.55005 1L11.45 10.9" stroke="black" stroke-linecap="round" stroke-linejoin="round"/>
<path d="M5.72133 5.17285C5.51492 5.37911 5.39891 5.65892 5.3988 5.95071C5.3987 6.24251 5.51452 6.5224 5.72078 6.7288C5.92704 6.93521 6.20684 7.05122 6.49864 7.05132C6.79043 7.05143 7.07032 6.93561 7.27673 6.72935" stroke="black" stroke-linecap="round" stroke-linejoin="round"/>
<path d="M5.04965 2.30076C5.52123 2.16586 6.00951 2.09827 6.5 2.10001C8.7 2.10001 10.5332 3.38316 12 5.95001C11.5721 6.69856 11.1134 7.33821 10.6234 7.86841M9.44635 8.89196C8.5493 9.49696 7.5681 9.80001 6.5 9.80001C4.3 9.80001 2.46685 8.51686 1 5.95001C1.75295 4.63276 2.60215 3.65376 3.5476 3.01246" stroke="black" stroke-linecap="round" stroke-linejoin="round"/>
</svg>
