<svg width="187" height="78" viewBox="0 0 187 78" fill="none" xmlns="http://www.w3.org/2000/svg">
<path d="M177.688 67.4628L168.603 57.8645L159.46 48.3265L150.27 38.8364C144.154 32.4978 137.948 26.2487 131.789 19.9539L113.17 1.20863L111.97 0L110.77 1.20863L92.1555 19.9559C90.4934 21.6534 88.8271 23.3468 87.1608 25.0401L66.5517 5.5855L65.9276 4.99679L65.3493 5.5855L0 72.1372L65.9255 7.40157L84.8226 27.4199C81.0927 31.2122 77.367 35.0108 73.6724 38.8385L64.4818 48.3286L55.337 57.8666L46.2525 67.4628C43.232 70.6685 40.2302 73.895 37.2429 77.134C40.4819 74.1467 43.7083 71.1449 46.914 68.1244L56.5103 59.0399L66.0483 49.895L75.5384 40.7045C81.877 34.5885 88.1281 28.3851 94.4209 22.2234L111.968 4.79916L129.513 22.2255C135.808 28.3851 142.055 34.5906 148.393 40.7065L157.883 49.8971L167.421 59.0399L177.02 68.1244C180.228 71.1449 183.452 74.1446 186.693 77.1319C183.708 73.8971 180.708 70.6706 177.688 67.4628Z" fill="#A8053D"/>
</svg>
