<svg width="11" height="13" viewBox="0 0 11 13" fill="none" xmlns="http://www.w3.org/2000/svg">
<path d="M8.54286 5.88892H2.25714C1.56284 5.88892 1 6.43612 1 7.11114V10.7778C1 11.4528 1.56284 12 2.25714 12H8.54286C9.23716 12 9.8 11.4528 9.8 10.7778V7.11114C9.8 6.43612 9.23716 5.88892 8.54286 5.88892Z" stroke="black" stroke-width="1.2" stroke-linecap="round" stroke-linejoin="round"/>
<path d="M5.39993 9.55554C5.74708 9.55554 6.02851 9.28193 6.02851 8.94442C6.02851 8.60692 5.74708 8.33331 5.39993 8.33331C5.05278 8.33331 4.77136 8.60692 4.77136 8.94442C4.77136 9.28193 5.05278 9.55554 5.39993 9.55554Z" stroke="black" stroke-width="1.2" stroke-linecap="round" stroke-linejoin="round"/>
<path d="M2.88574 5.88889V3.44444C2.88574 2.79614 3.15064 2.17438 3.62216 1.71596C4.09368 1.25754 4.7332 1 5.40003 1C6.06686 1 6.70638 1.25754 7.1779 1.71596C7.64942 2.17438 7.91431 2.79614 7.91431 3.44444V5.88889" stroke="black" stroke-width="1.2" stroke-linecap="round" stroke-linejoin="round"/>
</svg>
