<svg width="20" height="22" viewBox="0 0 20 22" fill="none" xmlns="http://www.w3.org/2000/svg">
<path d="M9.99997 12.9997C11.6568 12.9997 13 11.6565 13 9.99969C13 8.34284 11.6568 6.99969 9.99997 6.99969C8.34311 6.99969 6.99997 8.34284 6.99997 9.99969C6.99997 11.6565 8.34311 12.9997 9.99997 12.9997Z" stroke="#919191" stroke-width="2.2" stroke-linecap="round" stroke-linejoin="round"/>
<path d="M15.657 15.6567L11.414 19.8997C11.039 20.2743 10.5306 20.4848 10.0005 20.4848C9.47042 20.4848 8.96201 20.2743 8.587 19.8997L4.343 15.6567C3.22422 14.5379 2.46234 13.1124 2.15369 11.5606C1.84504 10.0087 2.00349 8.40022 2.60901 6.93844C3.21452 5.47665 4.2399 4.22725 5.55548 3.34821C6.87107 2.46918 8.41777 2 10 2C11.5822 2 13.1289 2.46918 14.4445 3.34821C15.7601 4.22725 16.7855 5.47665 17.391 6.93844C17.9965 8.40022 18.155 10.0087 17.8463 11.5606C17.5377 13.1124 16.7758 14.5379 15.657 15.6567Z" stroke="#919191" stroke-width="2.2" stroke-linecap="round" stroke-linejoin="round"/>
</svg>
