<svg width="163" height="68" viewBox="0 0 163 68" fill="none" xmlns="http://www.w3.org/2000/svg">
<path d="M154.651 58.7166L146.745 50.3627L138.787 42.0613L130.788 33.8014C125.465 28.2847 120.064 22.8457 114.703 17.3669L98.4984 1.05194L97.4537 0L96.409 1.05194L80.2081 17.3688C78.7614 18.8462 77.3112 20.32 75.8609 21.7938L57.9236 4.86137L57.3804 4.34898L56.8771 4.86137L0 62.785L57.3786 6.44199L73.8258 23.8651C70.5795 27.1657 67.3367 30.4718 64.1212 33.8033L56.1221 42.0631L48.1629 50.3645L40.2561 58.7166C37.6272 61.5067 35.0145 64.3149 32.4146 67.134C35.2336 64.534 38.0418 61.9213 40.8319 59.2924L49.184 51.3857L57.4855 43.4264L65.7453 35.4273C71.262 30.1043 76.7028 24.7052 82.1798 19.3423L97.4519 4.17697L112.722 19.3441C118.201 24.7052 123.638 30.1061 129.155 35.4292L137.415 43.4282L145.716 51.3857L154.07 59.2924C156.862 61.9213 159.668 64.5322 162.489 67.1322C159.891 64.3167 157.28 61.5085 154.651 58.7166Z" fill="#919191"/>
</svg>
